<?xml version="1.0" standalone="no"?>
<!DOCTYPE svg PUBLIC "-//W3C//DTD SVG 1.1//EN" "http://www.w3.org/Graphics/SVG/1.1/DTD/svg11.dtd" >
<svg xmlns="http://www.w3.org/2000/svg" xmlns:xlink="http://www.w3.org/1999/xlink" version="1.1">
<metadata>
Created by FontForge 20201107 at Fri Feb  3 06:13:15 2023
 By 
Copyright (c) 2023 by Alit Suarnegara. All rights reserved.
</metadata>
<defs>
<font id="Themundayfreeversion-Regular" horiz-adv-x="180" >
  <font-face 
    font-family="The munday free version"
    font-weight="400"
    font-stretch="normal"
    units-per-em="1000"
    panose-1="0 0 5 0 0 0 0 0 0 0"
    ascent="800"
    descent="-200"
    x-height="500"
    cap-height="700"
    bbox="-1269 -800 1783 1300"
    underline-thickness="50"
    underline-position="-100"
    unicode-range="U+0020-E003"
  />
<missing-glyph horiz-adv-x="1050" 
d="M195 1300h666v-2100h-666v2100zM699 1090v69h-346v-69h136v-78h-138v-69h348v69h-138v78h138zM561 741v147h-210v-218h348v71h-138zM420 817h69v-76h-69v76zM699 544v69h-348v-69h138v-78h-138v-69h210v147h138zM699 277v210h-69v-138h-279v-72h348zM699 -6v237h-210
v-117h72v48h69v-99h-210v168h-69v-237h348zM699 -370v238h-348v-238h348zM420 -202h210v-98h-210v98zM699 -487v69h-348v-69h147l-147 -99v-69h348v69h-214l147 99h67z" />
    <glyph glyph-name=".notdef" horiz-adv-x="1050" 
d="M195 1300h666v-2100h-666v2100zM699 1090v69h-346v-69h136v-78h-138v-69h348v69h-138v78h138zM561 741v147h-210v-218h348v71h-138zM420 817h69v-76h-69v76zM699 544v69h-348v-69h138v-78h-138v-69h210v147h138zM699 277v210h-69v-138h-279v-72h348zM699 -6v237h-210
v-117h72v48h69v-99h-210v168h-69v-237h348zM699 -370v238h-348v-238h348zM420 -202h210v-98h-210v98zM699 -487v69h-348v-69h147l-147 -99v-69h348v69h-214l147 99h67z" />
    <glyph glyph-name=".null" horiz-adv-x="0" 
 />
    <glyph glyph-name="nonmarkingreturn" horiz-adv-x="333" 
 />
    <glyph glyph-name="space" unicode=" " horiz-adv-x="280" 
 />
    <glyph glyph-name="exclam" unicode="!" horiz-adv-x="192" 
d="M77 211l-24 489h86l-24 -489h-38zM63.5 14.5q-13.5 13.5 -13.5 32.5t13.5 32.5t32.5 13.5t32.5 -13.5t13.5 -32.5t-13.5 -32.5t-32.5 -13.5t-32.5 13.5z" />
    <glyph glyph-name="quotedbl" unicode="&#x22;" horiz-adv-x="330" 
d="M101 455h-22l-29 245h80zM251 455h-22l-29 245h80z" />
    <glyph glyph-name="numbersign" unicode="#" horiz-adv-x="680" 
d="M630 482l-2 -15h-60l-40 -225h72l-2 -15h-73l-40 -227h-80l40 227h-260l-40 -227h-80l40 227h-55l2 15h56l40 225h-68l2 15h68l39 218h80l-39 -218h260l39 218h80l-39 -218h60zM188 242h260l40 225h-260z" />
    <glyph glyph-name="dollar" unicode="$" horiz-adv-x="638" 
d="M549.5 70.5q-38.5 -39.5 -98.5 -59.5t-125 -20v-50h-15v50h-2q-85 3 -142 35.5t-85.5 79.5t-31.5 94l83 27q-5 -89 43.5 -149t134.5 -70v314q-85 33 -135 58t-85 62.5t-35 88.5q0 54 36.5 94t95 61t123.5 22v57h15v-58h6q97 -5 153.5 -40.5t78.5 -87.5l-68 -38
q-12 61 -51 105t-113 48h-6v-295q86 -33 137.5 -59t88 -69t36.5 -106q0 -55 -38.5 -94.5zM139 499q26 -29 66 -49.5t106 -45.5v291q-77 -1 -137.5 -31.5t-60.5 -96.5q0 -39 26 -68zM501.5 214.5q-26.5 30.5 -68.5 53t-107 48.5v-310h16q77 0 131.5 34.5t54.5 103.5
q0 40 -26.5 70.5z" />
    <glyph glyph-name="percent" unicode="%" horiz-adv-x="769" 
d="M71 630q21 36 55.5 55.5t73.5 19.5t73 -19.5t55 -55.5t21 -82q0 -47 -21 -83t-55 -55.5t-73 -19.5t-73.5 19.5t-55.5 55.5t-21 83q0 46 21 82zM180 0h-85l490 700h85zM251 443.5q18 38.5 18 100.5q0 67 -17.5 107.5t-51.5 40.5q-35 0 -53 -39.5t-18 -103.5t18 -104
t53 -40q33 0 51 38.5zM441 240q21 36 55.5 55.5t73.5 19.5t73 -19.5t55 -55.5t21 -82q0 -47 -21 -83t-55 -55.5t-73 -19.5t-73.5 19.5t-55.5 55.5t-21 83q0 46 21 82zM621 53.5q18 38.5 18 100.5q0 67 -17.5 107.5t-51.5 40.5q-35 0 -53 -39.5t-18 -103.5t18 -104t53 -40
q33 0 51 38.5z" />
    <glyph glyph-name="ampersand" unicode="&#x26;" horiz-adv-x="690" 
d="M571 0q-37 22 -87 61q-77 -69 -193 -69q-69 0 -124 22.5t-86 62t-31 88.5q0 56 41 99.5t108 79.5q-51 66 -70 113q-17 41 -17 81q0 52 28.5 90.5t74.5 59t97 20.5q66 0 111.5 -33t45.5 -86q0 -62 -53 -112.5t-144 -106.5q83 -105 214 -214q26 68 21 153h79
q0 -50 -13.5 -99.5t-40.5 -91.5q75 -61 108 -79zM208.5 666q-35.5 -28 -35.5 -85q0 -7 2 -25q10 -73 89 -176q65 44 98.5 87.5t33.5 110.5q0 56 -28 86t-73 30q-51 0 -86.5 -28zM382 28q39 22 68 61q-65 54 -130.5 119.5t-113.5 126.5q-36 -22 -59 -59t-23 -90q0 -52 23 -93
t62 -64t86 -23q48 0 87 22z" />
    <glyph glyph-name="quotesingle" unicode="'" 
d="M101 455h-22l-29 245h80z" />
    <glyph glyph-name="parenleft" unicode="(" horiz-adv-x="334" 
d="M275 -123q-56 30 -107.5 88t-84.5 141.5t-33 183.5q0 95 27.5 177.5t75 142t105.5 90.5l7 -12q-36 -20 -67 -74t-49.5 -133t-18.5 -172q0 -102 21 -191t56.5 -149.5t76.5 -81.5z" />
    <glyph glyph-name="parenright" unicode=")" horiz-adv-x="334" 
d="M50 -113q41 21 76.5 81.5t56.5 149.5t21 191q0 93 -18.5 172t-49.5 133t-67 74l7 12q58 -31 105.5 -90.5t75 -142t27.5 -177.5q0 -100 -33 -183.5t-84.5 -141.5t-107.5 -88z" />
    <glyph glyph-name="asterisk" unicode="*" horiz-adv-x="402" 
d="M90 431l-40 69l131 41l-131 42l40 69l102 -90l-27 138h80l-33 -136l100 88l40 -69l-131 -42l131 -41l-40 -69l-100 88l33 -122h-80l27 124z" />
    <glyph glyph-name="plus" unicode="+" horiz-adv-x="425" 
d="M248 323h127v-65h-127v-137h-70v137h-128v65h128v136h70v-136z" />
    <glyph glyph-name="comma" unicode="," horiz-adv-x="220" 
d="M170 90l-111 -196l-9 5l28 191h92z" />
    <glyph glyph-name="hyphen" unicode="-" horiz-adv-x="348" 
d="M298 258h-248v75h248v-75z" />
    <glyph glyph-name="period" unicode="." horiz-adv-x="192" 
d="M63.5 14.5q-13.5 13.5 -13.5 32.5t13.5 32.5t32.5 13.5t32.5 -13.5t13.5 -32.5t-13.5 -32.5t-32.5 -13.5t-32.5 13.5z" />
    <glyph glyph-name="slash" unicode="/" horiz-adv-x="436" 
d="M125 -202h-75l261 902h75z" />
    <glyph glyph-name="zero" unicode="0" horiz-adv-x="656" 
d="M171.5 51.5q-61.5 48.5 -91.5 127.5t-30 170q0 92 31.5 172.5t94.5 130.5t153 50q89 0 151.5 -51t94 -133t31.5 -174q0 -90 -31 -167.5t-94.5 -125.5t-156.5 -48q-91 0 -152.5 48.5zM429.5 66q45.5 49 68.5 127.5t23 167.5q0 85 -22 159t-66 119.5t-108 45.5
q-62 0 -104.5 -47t-64 -123.5t-21.5 -163.5q0 -86 21 -162.5t62.5 -124t101.5 -47.5q64 0 109.5 49z" />
    <glyph glyph-name="one" unicode="1" horiz-adv-x="226" 
d="M50 668l126 32v-700h-80v602q0 26 -11.5 44t-34.5 15v7z" />
    <glyph glyph-name="two" unicode="2" horiz-adv-x="578" 
d="M54 70q13 30 46.5 55.5t97.5 63.5q77 46 126 83.5t84.5 94.5t35.5 133q0 94 -42.5 143t-110.5 49q-43 0 -78 -24t-55.5 -67.5t-20.5 -100.5h-80q0 53 29 100.5t82 76.5t120 29q106 0 173 -58t67 -171q0 -74 -44 -130t-104.5 -93t-152.5 -81q-75 -37 -109.5 -58t-42.5 -45
h448l-31 -70h-438v70z" />
    <glyph glyph-name="three" unicode="3" horiz-adv-x="580" 
d="M223 485q64 2 136 -27.5t121.5 -86.5t49.5 -134q0 -65 -36 -121t-96 -89t-130 -33q-53 0 -102 22t-81 62t-35 92l76 48q4 -101 50 -155.5t116 -54.5q44 0 82.5 23.5t62 68t23.5 102.5q0 71 -41 122t-106.5 77t-136.5 26q-37 0 -62 -5l1 18l327 190l-384 -1l32 71h421v-48
z" />
    <glyph glyph-name="four" unicode="4" horiz-adv-x="587" 
d="M464 188h73l-32 -70h-41v-118h-80v118h-334v70l368 512h46v-512zM384 625l-315 -437h315v437z" />
    <glyph glyph-name="five" unicode="5" horiz-adv-x="585" 
d="M122 215q4 -103 47 -156t116 -53q48 0 86.5 30t61 85t22.5 129q0 72 -29 124t-78.5 79t-108.5 27q-74 0 -140 -39l-12 8l83 251h303l-30 -70l-283 -1l-55 -168q76 38 162 38q72 0 133.5 -28.5t98 -85t36.5 -135.5q0 -76 -37.5 -134t-97 -89.5t-123.5 -31.5
q-92 0 -154.5 47t-72.5 128z" />
    <glyph glyph-name="six" unicode="6" horiz-adv-x="602" 
d="M447 470.5q52 -33.5 78.5 -88t26.5 -116.5q0 -72 -31 -134t-88 -99.5t-130 -37.5q-78 0 -135 38.5t-87.5 105.5t-30.5 150q0 102 39.5 197t123 158t209.5 66l1 -9q-76 0 -135 -44t-96.5 -118.5t-50.5 -164.5q23 57 72 93.5t110 36.5q72 0 124 -33.5zM427.5 79
q38.5 70 38.5 176q0 61 -18 114.5t-54 86.5t-87 33q-43 0 -80 -24.5t-60.5 -63t-30.5 -76.5q-2 -30 -2 -45q0 -77 22 -139t63 -97t97 -35q73 0 111.5 70z" />
    <glyph glyph-name="seven" unicode="7" horiz-adv-x="591" 
d="M68 700h473v-49q-84 -51 -149.5 -141.5t-102.5 -209t-37 -250.5q0 -33 1 -50h-92q0 119 44 239t120 222.5t168 171.5l-443 -3z" />
    <glyph glyph-name="eight" unicode="8" horiz-adv-x="633" 
d="M487.5 329.5q41.5 -26.5 68.5 -63.5t27 -84q0 -53 -32 -96.5t-94.5 -68.5t-148.5 -25q-82 0 -140.5 24t-88 64t-29.5 87q0 64 52 120.5t148 86.5q-78 37 -120.5 77.5t-42.5 100.5q0 68 58 111t161 43q112 0 168.5 -38.5t56.5 -97.5q0 -52 -41 -103t-108 -80
q64 -31 105.5 -57.5zM198.5 489q31.5 -27 68.5 -46.5t105 -50.5q38 18 62 62t24 93q0 63 -39.5 105.5t-120.5 42.5q-66 0 -108.5 -29t-42.5 -77q0 -18 8 -40q12 -33 43.5 -60zM450.5 44.5q54.5 38.5 54.5 106.5q0 18 -2 28q-7 39 -36 69.5t-68 52.5t-104 52l-31 14
q-63 -28 -95 -77t-32 -105q0 -47 22 -88t63 -66t96 -25q78 0 132.5 38.5z" />
    <glyph glyph-name="nine" unicode="9" horiz-adv-x="602" 
d="M492 630.5q60 -79.5 60 -209.5q0 -102 -39.5 -197t-123 -158t-209.5 -66l-1 9q76 0 135 44t96.5 118.5t50.5 164.5q-23 -57 -72 -93.5t-110 -36.5q-72 0 -124 33.5t-78.5 88t-26.5 116.5q0 73 32 133.5t93 96.5t142 36q115 0 175 -79.5zM375 245.5q37 24.5 60.5 63
t30.5 76.5q2 30 2 45q0 122 -40.5 194t-123.5 72q-50 0 -88.5 -32.5t-59 -87.5t-20.5 -121q0 -61 18 -114.5t54 -86.5t87 -33q43 0 80 24.5z" />
    <glyph glyph-name="colon" unicode=":" horiz-adv-x="192" 
d="M63.5 414.5q-13.5 13.5 -13.5 32.5t13.5 32.5t32.5 13.5t32.5 -13.5t13.5 -32.5t-13.5 -32.5t-32.5 -13.5t-32.5 13.5zM63.5 14.5q-13.5 13.5 -13.5 32.5t13.5 32.5t32.5 13.5t32.5 -13.5t13.5 -32.5t-13.5 -32.5t-32.5 -13.5t-32.5 13.5z" />
    <glyph glyph-name="semicolon" unicode=";" horiz-adv-x="221" 
d="M92.5 414.5q-13.5 13.5 -13.5 32.5t13.5 32.5t32.5 13.5t32.5 -13.5t13.5 -32.5t-13.5 -32.5t-32.5 -13.5t-32.5 13.5zM50 -101q28 138 28 191h92l-11 -20q-75 -138 -100 -176z" />
    <glyph glyph-name="less" unicode="&#x3c;" horiz-adv-x="551" 
d="M501 187v-75l-451 140v37l451 141v-75l-322 -84z" />
    <glyph glyph-name="equal" unicode="=" horiz-adv-x="482" 
d="M432 335h-381l-1 75h381zM432 166h-381l-1 75h381z" />
    <glyph glyph-name="greater" unicode="&#x3e;" horiz-adv-x="551" 
d="M501 252l-451 -140v75l322 84l-322 84v75l451 -141v-37z" />
    <glyph glyph-name="question" unicode="?" horiz-adv-x="562" 
d="M224 172q0 56 26 96t77 89q33 33 53 56.5t34 55t14 69.5q0 69 -40.5 111.5t-105.5 42.5q-43 0 -77.5 -24t-54.5 -67.5t-20 -100.5h-80q0 53 27 100.5t77.5 76.5t117.5 29q105 0 172.5 -49.5t67.5 -139.5q0 -47 -19.5 -82.5t-47.5 -59.5t-74 -56q-58 -39 -86.5 -70
t-28.5 -77h-32zM212.5 14.5q-13.5 13.5 -13.5 32.5t13.5 32.5t32.5 13.5t32.5 -13.5t13.5 -32.5t-13.5 -32.5t-32.5 -13.5t-32.5 13.5z" />
    <glyph glyph-name="at" unicode="@" horiz-adv-x="827" 
d="M640.5 539.5q62.5 -36.5 99.5 -98.5t37 -141q0 -73 -29 -138.5t-76 -104.5t-96 -39q-57 0 -81 38t-23 100q-19 -30 -50 -53.5t-75 -23.5q-66 0 -103 44.5t-37 108.5q0 30 7 55q11 44 39.5 82.5t70.5 61.5t91 23q43 0 69.5 -17.5t38.5 -35.5l4 13h78q-19 -56 -40.5 -139
t-21.5 -149q0 -98 62 -90q26 3 48.5 35.5t36 83.5t13.5 106q0 76 -22.5 142.5t-69 111.5t-116.5 54q-22 3 -45 3q-79 0 -145 -36t-109 -95.5t-58 -128.5q-10 -43 -10 -87q0 -70 26.5 -125.5t75 -87t114.5 -31.5q65 0 135 30l1 -11q-79 -36 -155 -36q-79 0 -142 38.5t-98 104
t-35 143.5q0 38 9 75q17 70 67 129t131.5 94.5t188.5 35.5q36 0 55 -2q77 -6 139.5 -42.5zM516 382q-5 23 -29 36.5t-51 10.5q-49 -5 -87.5 -44.5t-55.5 -102.5q-10 -34 -10 -69q0 -44 17 -74t47 -39q9 -3 19 -3q31 0 61 26t46 59q1 16 5 48q9 59 38 152z" />
    <glyph glyph-name="A" unicode="A" horiz-adv-x="622" 
d="M572 0h-80l-85 236h-255l-86 -236h-16l254 700h16zM280 590l-123 -339h245z" />
    <glyph glyph-name="B" unicode="B" horiz-adv-x="637" 
d="M454.5 406.5q53.5 -21.5 93 -67.5t39.5 -117q0 -109 -95.5 -165.5t-251.5 -56.5h-190v700h215q120 0 170 -35.5t50 -86.5q0 -52 -38.5 -88t-94.5 -55q49 -7 102.5 -28.5zM130 685v-254h131q62 0 100.5 35t38.5 95q0 56 -37 90t-98 34h-135zM240 15q79 0 138 26.5
t91.5 73.5t32.5 107q0 73 -37.5 116t-92.5 60.5t-111 17.5h-131v-401h110z" />
    <glyph glyph-name="C" unicode="C" horiz-adv-x="695" 
d="M211 47q-75 46 -118 131.5t-43 198.5q0 93 37.5 167t108 116t167.5 42q89 0 151.5 -31t93.5 -78t31 -93h-84q0 37 -20.5 81t-61 75t-96.5 31q-62 0 -115 -31t-86.5 -89.5t-39.5 -136.5q-2 -24 -2 -36q0 -92 37.5 -173t102.5 -129.5t144 -48.5q74 0 130 38t85 112l12 -4
q-36 -90 -102.5 -139t-162.5 -49q-94 0 -169 46z" />
    <glyph glyph-name="D" unicode="D" horiz-adv-x="636" 
d="M434.5 655q70.5 -45 111 -125.5t40.5 -182.5q0 -111 -49.5 -189t-134.5 -118t-191 -40h-161v700h227q87 0 157.5 -45zM211 15q170 0 230 87.5t60 218.5q0 109 -31 191t-88.5 127.5t-134.5 45.5h-117v-670h81z" />
    <glyph glyph-name="E" unicode="E" horiz-adv-x="533" 
d="M130 343v-328h353v-15h-433v700h423v-15h-343v-327h313v-15h-313z" />
    <glyph glyph-name="F" unicode="F" horiz-adv-x="533" 
d="M483 700v-15h-353v-327h353v-15h-353v-343h-80v700h433z" />
    <glyph glyph-name="G" unicode="G" horiz-adv-x="689" 
d="M639 369v-219q-50 -83 -117 -119t-165 -30q-81 5 -151.5 54.5t-113 133.5t-42.5 188q0 93 37.5 167t108 116t167.5 42q89 0 151.5 -31t93.5 -78t31 -93h-84q0 37 -20.5 81t-61 75t-96.5 31q-62 0 -115 -31.5t-87 -89.5t-39 -136q-2 -30 -2 -44q0 -105 36.5 -186.5
t100.5 -126.5t144 -45q82 0 144 53v273h-164v15h244z" />
    <glyph glyph-name="H" unicode="H" horiz-adv-x="620" 
d="M490 358v342h80v-700h-80v343h-360v-343h-80v700h80v-342h360z" />
    <glyph glyph-name="I" unicode="I" 
d="M50 0v700h80v-700h-80z" />
    <glyph glyph-name="J" unicode="J" horiz-adv-x="497" 
d="M367 700h80v-500q0 -85 -49.5 -143.5t-152.5 -58.5q-56 0 -100 24t-69.5 71t-25.5 113h80q0 -97 27 -145t88 -48q71 0 96.5 49t25.5 138v500z" />
    <glyph glyph-name="K" unicode="K" horiz-adv-x="625" 
d="M575 0h-97l-223 421l-125 -132v-289h-80v700h80v-391l370 391h18l-204 -216z" />
    <glyph glyph-name="L" unicode="L" horiz-adv-x="553" 
d="M130 700v-685h373v-15h-453v700h80z" />
    <glyph glyph-name="M" unicode="M" horiz-adv-x="736" 
d="M606 700h80v-700h-80v660l-263 -660h-16l-261 653v-653h-16v700h94l231 -579z" />
    <glyph glyph-name="N" unicode="N" horiz-adv-x="582" 
d="M516 140v560h16v-700h-16l-450 662v-662h-16v700h85z" />
    <glyph glyph-name="O" unicode="O" horiz-adv-x="716" 
d="M208.5 51q-70.5 50 -114.5 136t-44 190q0 92 36 165.5t104 115.5t159 42q89 0 161 -44.5t114 -125t42 -183.5q0 -97 -38 -176t-108 -124.5t-164 -45.5q-77 0 -147.5 50zM545 139q36 80 36 187q0 90 -25.5 171.5t-76 132.5t-120.5 51q-25 0 -44 -5q-91 -21 -135.5 -103
t-44.5 -194q0 -89 28.5 -171t81.5 -134t123 -52q28 0 63 11q78 26 114 106z" />
    <glyph glyph-name="P" unicode="P" horiz-adv-x="572" 
d="M452.5 652q69.5 -48 69.5 -138q0 -103 -87.5 -146.5t-216.5 -43.5h-88v-324h-80v700h195q138 0 207.5 -48zM218 339q88 0 153.5 39t65.5 136q0 89 -56.5 130t-135.5 41h-115v-346h88z" />
    <glyph glyph-name="Q" unicode="Q" horiz-adv-x="716" 
d="M596 -117l1 -1q-31 -16 -62 -16q-47 0 -89.5 35t-73.5 100h-15q-77 0 -148 49.5t-115 136t-44 190.5q0 92 36 165.5t104 115.5t159 42q89 0 161 -44.5t114 -125t42 -183.5q0 -123 -58 -213t-161 -120q71 -131 149 -131zM159.5 209q29.5 -83 84 -135t124.5 -52q28 0 63 11
q78 26 114 106t36 187q0 90 -25.5 171.5t-76 132.5t-120.5 51q-25 0 -44 -5q-91 -21 -138 -103.5t-47 -192.5q0 -88 29.5 -171z" />
    <glyph glyph-name="R" unicode="R" horiz-adv-x="594" 
d="M544 0h-84l-178 334h-11h-141v-334h-80v700h195q277 0 277 -180q0 -72 -46 -114t-115 -60zM130 349h141q74 0 120 41.5t46 129.5t-56 126.5t-136 38.5h-115v-336z" />
    <glyph glyph-name="S" unicode="S" horiz-adv-x="638" 
d="M503 535q-12 70 -54.5 122t-128.5 52q-46 0 -92 -14.5t-76.5 -46t-30.5 -78.5q0 -40 27.5 -70t68 -51t110.5 -50q83 -35 133 -62t85.5 -70t35.5 -104q0 -60 -43 -104t-109 -65t-132 -16q-84 6 -140.5 43.5t-83 88.5t-28.5 99l84 25q-1 -9 -1 -27q0 -60 26 -109.5t74 -78
t110 -28.5q45 0 85.5 16.5t67 48.5t30.5 76q3 44 -26 77.5t-73 58t-121 58.5q-78 34 -126 60t-80.5 63t-32.5 86q0 55 36.5 97.5t95 66t122.5 23.5q19 0 28 -1q96 -8 151 -51.5t77 -99.5z" />
    <glyph glyph-name="T" unicode="T" horiz-adv-x="658" 
d="M608 700v-15h-238v-685h-80v685h-240v15h558z" />
    <glyph glyph-name="U" unicode="U" horiz-adv-x="578" 
d="M512 700h16v-480q0 -101 -58 -162.5t-159 -61.5q-119 0 -190 58t-71 166v480h80v-480q0 -96 49 -152t132 -56q91 0 146 56t55 152v480z" />
    <glyph glyph-name="V" unicode="V" horiz-adv-x="622" 
d="M342 111l214 589h16l-254 -700h-16l-252 700h80z" />
    <glyph glyph-name="W" unicode="W" horiz-adv-x="879" 
d="M608 134l205 566h16l-254 -700h-16l-119 503l-121 -503h-16l3 14l-4 -14l-252 700h80l205 -569l97 405l-39 164h80z" />
    <glyph glyph-name="X" unicode="X" horiz-adv-x="615" 
d="M346 361l219 -361h-90l-200 329l-200 -329h-17l209 343l-217 357h90l197 -325l198 325h17z" />
    <glyph glyph-name="Y" unicode="Y" horiz-adv-x="629" 
d="M563 700h16l-219 -408v-292h-80v269l-230 431h83l215 -401z" />
    <glyph glyph-name="Z" unicode="Z" horiz-adv-x="626" 
d="M576 700l-427 -685h411v-15h-510l427 685h-427v15h526z" />
    <glyph glyph-name="bracketleft" unicode="[" horiz-adv-x="288" 
d="M238 -145h-188v845h188v-15h-97v-815h97v-15z" />
    <glyph glyph-name="backslash" unicode="\" horiz-adv-x="436" 
d="M125 700l261 -902h-75l-261 902h75z" />
    <glyph glyph-name="bracketright" unicode="]" horiz-adv-x="288" 
d="M238 700v-845h-188v15h97v815h-97v15h188z" />
    <glyph glyph-name="asciicircum" unicode="^" horiz-adv-x="384" 
d="M144 539h-94l121 161h42l121 -161h-94l-48 141z" />
    <glyph glyph-name="underscore" unicode="_" horiz-adv-x="398" 
d="M348 -110h-298v75h298v-75z" />
    <glyph glyph-name="a" unicode="a" horiz-adv-x="533" 
d="M421 471.5q62 -35.5 62 -114.5v-357h-80v94q-19 -42 -64.5 -70.5t-102.5 -29.5q-93 -3 -139.5 38t-46.5 108q0 60 42.5 104.5t122 69t188.5 25.5v18q0 71 -33 105t-89 34q-55 0 -94 -39.5t-39 -117.5h-80q0 47 26 85t74 60.5t112 22.5q79 0 141 -35.5zM321.5 29
q31.5 17 53.5 43.5t28 54.5v201q-81 4 -141.5 -19t-93.5 -67t-33 -102t33.5 -93t87.5 -35q34 0 65.5 17z" />
    <glyph glyph-name="b" unicode="b" horiz-adv-x="568" 
d="M403 475.5q54 -32.5 84.5 -92.5t30.5 -136q0 -74 -33.5 -132t-89.5 -90t-119 -32q-79 0 -146 51l-80 -44v727l80 23v-340q19 37 61 65t90 30q68 3 122 -29.5zM130 62q52 -53 119 -53q48 0 90 28.5t68 83t26 127.5q0 116 -45 177t-117 61q-31 0 -61.5 -16t-52.5 -42
t-27 -54v-312z" />
    <glyph glyph-name="c" unicode="c" horiz-adv-x="571" 
d="M511 106q-30 -49 -81 -80.5t-118 -31.5q-76 0 -135.5 32.5t-93 90t-33.5 130.5q0 121 70.5 189.5t189.5 68.5q63 0 111 -23t74 -59t26 -73h-75q0 36 -18.5 69.5t-51.5 54t-75 20.5q-18 0 -27 -2q-60 -10 -100.5 -69t-40.5 -154q0 -13 2 -39q6 -64 34.5 -110.5t73 -70
t96.5 -23.5q59 0 98 23.5t59 57.5z" />
    <glyph glyph-name="d" unicode="d" horiz-adv-x="570" 
d="M440 727l80 23v-706l-80 -44v116q-18 -52 -61.5 -87t-99.5 -35q-64 0 -116.5 32.5t-82.5 90t-30 130.5q0 77 30.5 135t85 90.5t123.5 32.5q40 0 83 -16t68 -47v285zM370 38.5q34 26.5 51.5 63.5t18.5 68v253q-17 29 -51 47t-72 18q-47 0 -89 -28t-68 -85t-26 -138
q0 -69 21.5 -120t57 -78t76.5 -27q47 0 81 26.5z" />
    <glyph glyph-name="e" unicode="e" horiz-adv-x="589" 
d="M135 230q6 -64 34.5 -110.5t73 -70t96.5 -23.5q59 0 98 23.5t59 57.5l15 -1q-68 -112 -199 -112q-76 0 -135.5 32.5t-93 90t-33.5 130.5q0 80 31.5 138t90 89t136.5 31q72 0 123 -34t78 -87.5t30 -112.5h-406q0 -13 2 -41zM218 469.5q-36 -24.5 -58.5 -71.5t-25.5 -112
h319q-4 54 -23.5 101.5t-54 77t-79.5 29.5q-42 0 -78 -24.5z" />
    <glyph glyph-name="f" unicode="f" horiz-adv-x="474" 
d="M169 570v-144h161v-15h-161v-411h-80v411h-39v15h39v124q0 102 49.5 153t128.5 51q69 0 103.5 -27.5t44 -64t9.5 -83.5h-75q0 67 -15.5 115.5t-66.5 48.5q-98 0 -98 -173z" />
    <glyph glyph-name="g" unicode="g" horiz-adv-x="570" 
d="M440 477l80 23v-500q0 -54 -24 -99.5t-74 -74t-124 -28.5q-100 0 -153.5 49.5t-53.5 126.5h80q0 -74 33.5 -117.5t93.5 -43.5q73 0 107.5 51.5t34.5 135.5v116q-18 -52 -61.5 -87t-99.5 -35q-64 0 -116.5 32.5t-82.5 90t-30 130.5q0 77 30.5 135t85 90.5t123.5 32.5
q40 0 83 -16t68 -47v35zM370 38.5q34 26.5 51.5 63.5t18.5 68v253q-17 29 -51 47t-72 18q-47 0 -89 -28t-68 -85t-26 -138q0 -69 21.5 -120t57 -78t76.5 -27q47 0 81 26.5z" />
    <glyph glyph-name="h" unicode="h" horiz-adv-x="530" 
d="M435.5 461q44.5 -46 44.5 -140v-321h-80v295q0 86 -29.5 136t-88.5 50q-29 0 -63.5 -20t-59.5 -51.5t-29 -63.5v-346h-80v727l80 23v-361q21 48 74 83t107 35q80 0 124.5 -46z" />
    <glyph glyph-name="i" unicode="i" horiz-adv-x="195" 
d="M64 601q-14 14 -14 34t14 33.5t34 13.5t33.5 -13.5t13.5 -33.5t-13.5 -34t-33.5 -14t-34 14zM58 0v477l80 23v-500h-80z" />
    <glyph glyph-name="j" unicode="j" horiz-adv-x="195" 
d="M64 601q-14 14 -14 34t14 33.5t34 13.5t33.5 -13.5t13.5 -33.5t-13.5 -34t-33.5 -14t-34 14zM58 477l80 23v-500q0 -91 -36.5 -146.5t-134.5 -55.5q-92 0 -134.5 40.5t-42.5 109.5h80q0 -62 23 -98.5t74 -36.5q39 0 59 24t26 63t6 100v477z" />
    <glyph glyph-name="k" unicode="k" horiz-adv-x="540" 
d="M490 0h-89l-163 327l-108 -122v-205h-80v727l80 23v-525l267 301l21 4l-117 -132z" />
    <glyph glyph-name="l" unicode="l" 
d="M50 0v727l80 23v-750h-80z" />
    <glyph glyph-name="m" unicode="m" horiz-adv-x="880" 
d="M785.5 461q44.5 -46 44.5 -140v-321h-80v295q0 86 -29.5 136t-88.5 50q-32 0 -65.5 -20t-57.5 -52t-30 -64q1 -7 1 -24v-321h-80v295q0 86 -29.5 136t-88.5 50q-29 0 -63.5 -20t-59.5 -51.5t-29 -63.5v-346h-80v477l80 23v-111q21 48 74 83t107 35q68 0 110 -32.5
t54 -98.5q13 34 41.5 64t67 48.5t77.5 18.5q80 0 124.5 -46z" />
    <glyph glyph-name="n" unicode="n" horiz-adv-x="530" 
d="M435.5 461q44.5 -46 44.5 -140v-321h-80v295q0 86 -29.5 136t-88.5 50q-29 0 -63.5 -20t-59.5 -51.5t-29 -63.5v-346h-80v477l80 23v-111q21 48 74 83t107 35q80 0 124.5 -46z" />
    <glyph glyph-name="o" unicode="o" horiz-adv-x="589" 
d="M80 382.5q30 58.5 85 90.5t129 32t129.5 -32t85.5 -90.5t30 -135.5q0 -74 -32.5 -131.5t-88.5 -89.5t-124 -32q-69 0 -124.5 32.5t-87.5 90t-32 130.5q0 77 30 135.5zM188.5 69q45.5 -62 114.5 -62q77 0 115 61t38 152q0 12 -2 38q-9 110 -54 172.5t-113 62.5
q-41 0 -76.5 -27t-56.5 -78t-21 -119q0 -11 2 -39q8 -99 53.5 -161z" />
    <glyph glyph-name="p" unicode="p" horiz-adv-x="568" 
d="M403 475.5q54 -32.5 84.5 -92.5t30.5 -136q0 -74 -33.5 -132t-89.5 -90t-119 -32q-79 0 -146 51v-294h-80v750l80 -23v-67q19 37 61 65t90 30q68 3 122 -29.5zM130 62q26 -24 56.5 -37t61.5 -13q48 0 90.5 28t68.5 81.5t26 126.5q0 78 -21 132t-58 81.5t-83 27.5
q-29 0 -60 -16.5t-53.5 -43.5t-27.5 -55v-312z" />
    <glyph glyph-name="q" unicode="q" horiz-adv-x="570" 
d="M440 477l80 23v-750h-80v335q-45 -91 -161 -91q-58 0 -111 33t-85.5 90.5t-32.5 129.5q0 77 30.5 135t85 90.5t123.5 32.5q39 0 82 -12t69 -36v20zM388.5 40.5q34.5 29.5 51.5 75.5v324q-22 23 -64.5 37.5t-79.5 14.5q-8 0 -22 -2q-66 -11 -103.5 -66.5t-37.5 -155.5
q0 -20 1 -31q6 -102 51.5 -164t114.5 -62q54 0 88.5 29.5z" />
    <glyph glyph-name="r" unicode="r" horiz-adv-x="479" 
d="M397.5 462.5q31.5 -44.5 31.5 -110.5h-80q0 129 -87 129q-30 0 -59 -19.5t-49 -51t-24 -64.5v-346h-80v477l80 23v-106q19 48 64.5 80.5t99.5 32.5q72 0 103.5 -44.5z" />
    <glyph glyph-name="s" unicode="s" horiz-adv-x="556" 
d="M429 368q-9 56 -51 94t-114 38q-58 0 -105.5 -21t-47.5 -63q0 -33 24.5 -55.5t60.5 -37.5t97 -34q69 -21 111.5 -39.5t72 -48.5t29.5 -75q0 -69 -62 -103t-148 -34q-76 0 -130.5 25t-83 66.5t-32.5 88.5l81 26q-2 -18 -2 -27q0 -42 20 -79.5t59.5 -61t95.5 -23.5
q54 0 97 23t43 69q0 33 -24.5 56t-61 38t-96.5 34q-69 23 -108.5 40t-67.5 44.5t-28 68.5q0 70 60.5 102.5t143.5 32.5q92 0 149 -33t79 -86z" />
    <glyph glyph-name="t" unicode="t" horiz-adv-x="403" 
d="M353 118q-3 -58 -33 -89.5t-84 -31.5q-152 0 -152 153v335h-34v15h34v112l80 44v-156h162v-15h-162v-335q0 -132 83 -132q44 0 69 29.5t25 70.5h12z" />
    <glyph glyph-name="u" unicode="u" horiz-adv-x="530" 
d="M400 477l80 23v-500h-80v111q-21 -48 -74 -83t-107 -35q-80 0 -124.5 46t-44.5 140v298l80 23v-295q0 -192 124 -186q29 1 62 21.5t56.5 51.5t27.5 62v323z" />
    <glyph glyph-name="v" unicode="v" horiz-adv-x="513" 
d="M288 100l159 400h16l-199 -500h-16l-198 500h80z" />
    <glyph glyph-name="w" unicode="w" horiz-adv-x="756" 
d="M535 110l155 390h16l-199 -500h-16l-113 343l-114 -343h-16l-198 500h80l154 -390l86 258l-43 132h80z" />
    <glyph glyph-name="x" unicode="x" horiz-adv-x="535" 
d="M309 255l176 -255h-89l-163 235l-164 -235h-17l172 248l-174 252h89l161 -233l161 233h18z" />
    <glyph glyph-name="y" unicode="y" horiz-adv-x="672" 
d="M606 500h16l-217 -500q-43 -90 -95.5 -146t-130.5 -56q-55 0 -89 22t-40 69h84q3 -23 21 -38.5t53 -15.5q57 0 101 45.5t80 119.5l-214 500h85l172 -401z" />
    <glyph glyph-name="z" unicode="z" horiz-adv-x="517" 
d="M466 500l-311 -485h312v-15h-417l311 485h-303v15h408z" />
    <glyph glyph-name="braceleft" unicode="{" horiz-adv-x="352" 
d="M221 402q0 -51 -26.5 -85t-82.5 -46q56 -12 82.5 -46t26.5 -85v-146q0 -67 15.5 -102t65.5 -35v-15q-87 0 -124 40.5t-37 115.5v132q0 67 -17.5 101t-73.5 34v12q56 0 73.5 34t17.5 101v132q0 75 37 115.5t124 40.5v-15q-50 0 -65.5 -35t-15.5 -102v-146z" />
    <glyph glyph-name="bar" unicode="|" 
d="M50 -111v811h80v-811h-80z" />
    <glyph glyph-name="braceright" unicode="}" horiz-adv-x="352" 
d="M211 412q0 -67 17.5 -101t73.5 -34v-12q-56 0 -73.5 -34t-17.5 -101v-132q0 -75 -37 -115.5t-124 -40.5v15q50 0 65.5 35t15.5 102v146q0 51 26.5 85t82.5 46q-56 12 -82.5 46t-26.5 85v146q0 67 -15.5 102t-65.5 35v15q87 0 124 -40.5t37 -115.5v-132z" />
    <glyph glyph-name="asciitilde" unicode="~" horiz-adv-x="467" 
d="M104 257q-16 0 -26.5 -8.5t-18.5 -26.5l-9 4q6 28 36 52.5t71 24.5t81 -26q55 -36 100 -36q27 0 44.5 13.5t21.5 34.5l13 -3q-15 -47 -47 -76.5t-75 -29.5q-42 0 -86 30q-68 47 -105 47z" />
    <glyph glyph-name="uni00A0" unicode="&#xa0;" horiz-adv-x="280" 
 />
    <glyph glyph-name="exclamdown" unicode="&#xa1;" horiz-adv-x="192" 
d="M128.5 532.5q13.5 -13.5 13.5 -32.5t-13.5 -32.5t-32.5 -13.5t-32.5 13.5t-13.5 32.5t13.5 32.5t32.5 13.5t32.5 -13.5zM139 -153h-86l24 489h38z" />
    <glyph glyph-name="brokenbar" unicode="&#xa6;" 
d="M130 700v-267h-80v267h80zM50 -111v268h80v-268h-80z" />
    <glyph glyph-name="section" unicode="&#xa7;" horiz-adv-x="556" 
d="M457.5 87q48.5 -34 48.5 -93q0 -69 -62 -103t-148 -34q-76 0 -130.5 25t-83 66.5t-32.5 88.5l81 26q-2 -18 -2 -27q0 -42 20 -79.5t59.5 -61t95.5 -23.5q54 0 97 23t43 69q0 33 -24.5 56t-61 38t-96.5 34q-69 23 -108.5 40t-67.5 44.5t-28 68.5q0 60 47 100t113 51
q-76 25 -118 56t-42 82q0 70 60.5 102.5t143.5 32.5q92 0 149 -33t79 -86l-61 -25q-9 56 -51 94t-114 38q-58 0 -105.5 -21t-47.5 -63q0 -33 24.5 -55.5t60.5 -37.5t97 -34q69 -21 111.5 -39.5t72 -48.5t29.5 -75q0 -63 -50.5 -96t-135.5 -38q89 -28 137.5 -62zM153.5 213
q42.5 -26 123.5 -51q18 -2 28 -2q54 0 96.5 26t42.5 67q0 34 -26.5 57.5t-62 37.5t-108.5 38q-32 -3 -63.5 -17t-52 -36.5t-20.5 -48.5q0 -45 42.5 -71z" />
    <glyph glyph-name="guillemotleft" unicode="&#xab;" horiz-adv-x="557" 
d="M210 487h97l-161 -205l161 -205h-97l-160 205zM410 487h97l-161 -205l161 -205h-97l-160 205z" />
    <glyph glyph-name="logicalnot" unicode="&#xac;" horiz-adv-x="389" 
d="M50 237v75h289v-155h-80v80h-209z" />
    <glyph glyph-name="uni00AD" unicode="&#xad;" horiz-adv-x="348" 
d="M298 258h-248v75h248v-75z" />
    <glyph glyph-name="degree" unicode="&#xb0;" horiz-adv-x="207" 
d="M66 608.5q-16 15.5 -16 37.5t16 38t38 16t37.5 -16t15.5 -38t-15 -37.5t-38 -15.5q-22 0 -38 15.5zM133 617.5q12 12.5 12 28.5q0 17 -12 29t-29 12q-16 0 -28.5 -12t-12.5 -29q0 -16 12.5 -28.5t28.5 -12.5q17 0 29 12.5z" />
    <glyph glyph-name="plusminus" unicode="&#xb1;" horiz-adv-x="434" 
d="M238 181h-49v86h-139v51h139v79h49v-79h133v-51h-133v-86zM50 93v15h334v-15h-334z" />
    <glyph glyph-name="uni00B2" unicode="&#xb2;" horiz-adv-x="332" 
d="M56 438q48 23 103.5 69t55.5 114q0 38 -14.5 58.5t-35.5 20.5t-37.5 -21.5t-16.5 -57.5h-57q2 43 35.5 67.5t78.5 24.5q46 0 80 -26t34 -73q0 -58 -49.5 -95.5t-122.5 -68.5l-24 -11h193l-28 -64h-195v63z" />
    <glyph glyph-name="uni00B3" unicode="&#xb3;" horiz-adv-x="354" 
d="M113 469q-1 -42 20 -65.5t50 -23.5q25 0 43 17.5t18 47.5q0 55 -35 77t-78 27v13l138 78h-202l22 60h207v-54l-111 -65q46 -8 82.5 -36t36.5 -76q0 -47 -40 -73t-93 -26q-45 0 -80 19.5t-41 54.5z" />
    <glyph glyph-name="uni00B5" unicode="&#xb5;" horiz-adv-x="616" 
d="M481 114q0 -28 10.5 -42.5t28.5 -14.5q21 0 46 20v-75q-34 -14 -61 -14q-43 0 -71 29t-32 80q-28 -45 -75 -70t-98 -25q-56 0 -99 28v-160h-80v630h80v-312q4 -79 40 -119.5t88 -40.5q42 0 81 25t62 68v379h80v-386z" />
    <glyph glyph-name="paragraph" unicode="&#xb6;" horiz-adv-x="601" 
d="M551 -111h-80v796h-90v-796h-80v482h-40q-105 0 -158 49t-53 124q0 42 22.5 77.5t69 57t115.5 21.5h294v-811zM301 386v299h-44q-54 0 -90.5 -39t-36.5 -102q0 -70 35.5 -114t95.5 -44h40z" />
    <glyph glyph-name="periodcentered" unicode="&#xb7;" horiz-adv-x="192" 
d="M63.5 242.5q-13.5 13.5 -13.5 32.5t13.5 32.5t32.5 13.5t32.5 -13.5t13.5 -32.5t-13.5 -32.5t-32.5 -13.5t-32.5 13.5z" />
    <glyph glyph-name="uni00B9" unicode="&#xb9;" horiz-adv-x="212" 
d="M162 700v-327h-74v253q-1 19 -8 26t-18 7l-12 -1v13z" />
    <glyph glyph-name="guillemotright" unicode="&#xbb;" horiz-adv-x="557" 
d="M50 487h97l160 -205l-160 -205h-97l161 205zM250 487h97l160 -205l-160 -205h-97l161 205z" />
    <glyph glyph-name="questiondown" unicode="&#xbf;" horiz-adv-x="562" 
d="M349.5 532.5q13.5 -13.5 13.5 -32.5t-13.5 -32.5t-32.5 -13.5t-32.5 13.5t-13.5 32.5t13.5 32.5t32.5 13.5t32.5 -13.5zM338 375q0 -56 -26 -96t-77 -89q-33 -33 -53 -56.5t-34 -55t-14 -69.5q0 -69 40.5 -111.5t105.5 -42.5q43 0 77.5 24t54.5 67.5t20 100.5h80
q0 -53 -27 -100.5t-77.5 -76.5t-117.5 -29q-105 0 -172.5 49.5t-67.5 139.5q0 47 19.5 82.5t47.5 59.5t74 56q58 39 86.5 70t28.5 77h32z" />
    <glyph glyph-name="multiply" unicode="&#xd7;" horiz-adv-x="388" 
d="M292 434l46 -49l-94 -95l90 -90l-45 -51l-93 94l-93 -94l-49 47l95 95l-99 99l48 46l98 -98z" />
    <glyph glyph-name="divide" unicode="&#xf7;" horiz-adv-x="466" 
d="M199.5 438.5q-13.5 13.5 -13.5 32.5t13.5 32.5t32.5 13.5t32.5 -13.5t13.5 -32.5t-13.5 -32.5t-32.5 -13.5t-32.5 13.5zM416 258h-366v75h366v-75zM199.5 82.5q-13.5 13.5 -13.5 32.5t13.5 32.5t32.5 13.5t32.5 -13.5t13.5 -32.5t-13.5 -32.5t-32.5 -13.5t-32.5 13.5z
" />
    <glyph glyph-name="endash" unicode="&#x2013;" horiz-adv-x="444" 
d="M394 258h-344v75h344v-75z" />
    <glyph glyph-name="emdash" unicode="&#x2014;" horiz-adv-x="726" 
d="M676 258h-626v75h626v-75z" />
    <glyph glyph-name="quoteleft" unicode="&#x2018;" horiz-adv-x="220" 
d="M50 498l11 20q75 138 100 176l9 -5q-28 -138 -28 -191h-92z" />
    <glyph glyph-name="quoteright" unicode="&#x2019;" horiz-adv-x="220" 
d="M50 503q28 138 28 191h92l-11 -20q-75 -138 -100 -176z" />
    <glyph glyph-name="quotesinglbase" unicode="&#x201a;" horiz-adv-x="220" 
d="M170 90l-111 -196l-9 5l28 191h92z" />
    <glyph glyph-name="quotedblleft" unicode="&#x201c;" horiz-adv-x="380" 
d="M50 498l11 20q75 138 100 176l9 -5q-28 -138 -28 -191h-92zM210 498l11 20q75 138 100 176l9 -5q-28 -138 -28 -191h-92z" />
    <glyph glyph-name="quotedblright" unicode="&#x201d;" horiz-adv-x="380" 
d="M50 501q28 138 28 191h92l-11 -20q-75 -138 -100 -176zM210 501q28 138 28 191h92l-11 -20q-75 -138 -100 -176z" />
    <glyph glyph-name="quotedblbase" unicode="&#x201e;" horiz-adv-x="220" 
d="M50 -101l28 191h92l-111 -196z" />
    <glyph glyph-name="bullet" unicode="&#x2022;" horiz-adv-x="290" 
d="M78 208q-28 28 -28 67t28 67t67 28t67 -28t28 -67t-28 -67t-67 -28t-67 28z" />
    <glyph glyph-name="ellipsis" unicode="&#x2026;" horiz-adv-x="525" 
d="M229.5 14.5q-13.5 13.5 -13.5 32.5t13.5 32.5t32.5 13.5t32.5 -13.5t13.5 -32.5t-13.5 -32.5t-32.5 -13.5t-32.5 13.5zM396.5 14.5q-13.5 13.5 -13.5 32.5t13.5 32.5t32.5 13.5t32.5 -13.5t13.5 -32.5t-13.5 -32.5t-32.5 -13.5t-32.5 13.5zM63.5 14.5
q-13.5 13.5 -13.5 32.5t13.5 32.5t32.5 13.5t32.5 -13.5t13.5 -32.5t-13.5 -32.5t-32.5 -13.5t-32.5 13.5z" />
    <glyph glyph-name="guilsinglleft" unicode="&#x2039;" horiz-adv-x="357" 
d="M210 487h97l-161 -205l161 -205h-97l-160 205z" />
    <glyph glyph-name="guilsinglright" unicode="&#x203a;" horiz-adv-x="357" 
d="M50 487h97l160 -205l-160 -205h-97l161 205z" />
    <glyph glyph-name="fraction" unicode="&#x2044;" horiz-adv-x="675" 
d="M135 0h-85l490 700h85z" />
    <glyph glyph-name="Euro" unicode="&#x20ac;" horiz-adv-x="695" 
d="M645 189q-36 -90 -102.5 -139t-162.5 -49q-81 0 -148.5 34.5t-112.5 99.5t-61 153h-82v15h79q-5 40 -5 74q0 13 2 39h-76v15h77q11 80 50.5 141t106 95.5t153.5 34.5q89 0 151.5 -31t93.5 -78t31 -93h-84q0 37 -20.5 81t-61 75t-96.5 31q-62 0 -115 -31t-86.5 -89
t-39.5 -136h266v-15h-267q-3 -59 9 -113h258v-15h-254q18 -69 57.5 -125t94.5 -88t118 -32q74 0 130 38t85 112z" />
    <glyph glyph-name="partialdiff" unicode="&#x2202;" horiz-adv-x="584" 
d="M174 700q109 -11 190.5 -74.5t125.5 -155.5t44 -186q0 -77 -27.5 -141t-83.5 -102.5t-139 -38.5q-118 0 -176 67t-58 171q0 79 31 137t82.5 88.5t112.5 30.5q84 0 157 -57q-29 101 -96 168.5t-163 85.5v7zM363 47q40 31 65 93.5t25 152.5q0 70 -16 130q-68 56 -134 56
q-49 0 -89 -30.5t-63 -86.5t-23 -130q0 -68 21.5 -117t56 -74t74.5 -25q43 0 83 31z" />
    <glyph glyph-name="emptyset" unicode="&#x2205;" horiz-adv-x="654" 
d="M494 498q51 -38 80.5 -96t29.5 -125q0 -75 -37.5 -138.5t-101 -101t-138.5 -37.5q-86 0 -159 50l-37 -50h-18l43 59q-50 39 -78 96t-28 122q0 75 37.5 138.5t101 101t138.5 37.5q86 0 155 -47l37 51h18zM138 186q21 -43 57 -73l247 340q-53 34 -115 34q-57 0 -105.5 -28
t-76.5 -76.5t-28 -105.5q0 -48 21 -91zM432.5 95q48.5 28 76.5 76.5t28 105.5q0 50 -22 94t-61 73l-247 -339q54 -38 120 -38q57 0 105.5 28z" />
    <glyph glyph-name="product" unicode="&#x220f;" horiz-adv-x="738" 
d="M688 700v-15h-123v-796h-80v796h-220v-796h-80v796h-135v15h638z" />
    <glyph glyph-name="summation" unicode="&#x2211;" horiz-adv-x="457" 
d="M407 -168h-357v26l206 408l-206 408v26h353v-15h-271l208 -419l-210 -419h277v-15z" />
    <glyph glyph-name="minus" unicode="&#x2212;" horiz-adv-x="395" 
d="M345 249h-295v75h295v-75z" />
    <glyph glyph-name="radical" unicode="&#x221a;" horiz-adv-x="680" 
d="M630 700v-15h-103l-253 -873h-79l-145 336h80l96 -256l231 808h173z" />
    <glyph glyph-name="infinity" unicode="&#x221e;" horiz-adv-x="812" 
d="M74 414q24 36 58.5 51.5t68.5 16.5q48 2 87 -15.5t68.5 -44.5t66.5 -70q52 51 87 78.5t78 39.5q18 5 34 5q36 0 68.5 -19t52 -53.5t19.5 -78.5q0 -56 -23.5 -94t-59.5 -56.5t-75 -18.5q-24 0 -44 7q-43 14 -77 40.5t-66 63.5q-71 -64 -155 -94q-26 -10 -56 -10
q-41 0 -77 20t-57.5 56t-21.5 83q0 57 24 93zM90 241.5q29 -32.5 82 -32.5q37 0 85 19q32 13 61 33.5t61 48.5q-44 54 -81.5 84.5t-91.5 41.5q-9 2 -26 2q-50 0 -84.5 -32.5t-34.5 -84.5q0 -47 29 -79.5zM522.5 249.5q29.5 -23.5 64.5 -34.5q30 -9 56 -9q50 0 80 30.5
t30 81.5q0 45 -33.5 76.5t-79.5 31.5q-26 0 -52 -12q-32 -15 -56 -36.5t-71 -69.5q32 -35 61.5 -58.5z" />
    <glyph glyph-name="integral" unicode="&#x222b;" horiz-adv-x="580" 
d="M300 553q13 72 52.5 104.5t78 37.5t99.5 5l-2 -21q-48 0 -72 -5t-49 -37t-38 -105l-43 -241l-46 -262q-13 -72 -52.5 -104.5t-78 -37.5t-99.5 -5l2 21q48 0 72 5t49 37t38 105l43 241z" />
    <glyph glyph-name="approxequal" unicode="&#x2248;" horiz-adv-x="483" 
d="M105 407q-16 0 -26.5 -9t-18.5 -27l-10 5q6 28 36 52.5t72 24.5q40 0 80 -26q57 -36 100 -36q28 0 45.5 13.5t21.5 34.5l13 -3q-15 -47 -47 -76.5t-74 -29.5q-43 0 -87 30q-70 47 -105 47zM119 198q-29 0 -45 -36l-9 4q6 28 36 53t72 25q38 0 80 -26q58 -37 101 -37
q27 0 44 13.5t21 34.5l14 -3q-15 -47 -47.5 -76.5t-74.5 -29.5t-86 30q-71 48 -106 48z" />
    <glyph glyph-name="notequal" unicode="&#x2260;" horiz-adv-x="482" 
d="M215 241h216l1 -75h-269l-36 -51h-17l36 51h-95l-1 75h149l66 94h-214l-1 75h268l26 37l14 -1l-25 -36h98l1 -75h-151z" />
    <glyph glyph-name="lessequal" unicode="&#x2264;" horiz-adv-x="496" 
d="M446 250v-90l-396 136v26l396 136v-90l-322 -59zM446 108v-15h-396v15h396z" />
    <glyph glyph-name="greaterequal" unicode="&#x2265;" horiz-adv-x="496" 
d="M446 296l-396 -136v90l322 59l-322 59v90l396 -136v-26zM446 93h-396v15h396v-15z" />
    <glyph glyph-name="M.ss01" unicode="&#xe000;" horiz-adv-x="1355" 
d="M1697 -112.5q41 -26.5 63.5 -68t22.5 -86.5q0 -46 -21.5 -92t-69 -77t-122.5 -31q-100 0 -177 47.5t-122.5 152t-45.5 267.5v574q-3 -64 -29 -134q-7 -20 -21.5 -43.5t-30 -47.5t-20.5 -31q-60 -87 -92 -149t-32 -122q0 -22 6 -45q6 -7 22 -21q28 -22 28 -35q0 -6 -8 -14
q-5 -5 -13 -5q-15 0 -30.5 19.5t-26.5 51.5q-49 37 -93.5 122t-80 180.5t-81.5 237.5q-25 78 -37 111v-305q0 -346 -100.5 -492t-267.5 -138q-74 3 -135.5 48t-97 120.5t-35.5 166.5q0 86 33.5 157.5t93 113t134.5 41.5q61 0 109.5 -30t75 -76t26.5 -93q0 -51 -29 -103
t-74.5 -83.5t-91.5 -26.5q8 -2 23 -2q49 0 93 35t68 72q1 -28 -19 -57t-55 -48t-75 -19q-42 0 -82 23l2 2q36 2 58 13t33 25.5t22 38.5q2 3 10.5 20t21.5 28q15 15 43 21q23 6 33 16.5t10 44.5q0 66 -56 105.5t-146 39.5q-67 0 -124.5 -33t-92 -92t-34.5 -133
q0 -84 35.5 -146.5t97 -95.5t138.5 -33q97 0 173.5 65t121 193.5t44.5 311.5v349q-24 54 -72.5 89t-108.5 35q-41 0 -78 -19t-59.5 -54.5t-22.5 -81.5q0 -59 41.5 -96.5t101.5 -37.5q23 0 53.5 12t45.5 25v1q-45 -29 -97 -29q-33 0 -59 13q6 1 14 11.5t18 16.5t32 6
q9 0 31 -2q24 -2 35 -2q44 0 64 23l1 -1q-8 -26 -38 -53.5t-66 -36.5q-18 -5 -41 -5q-41 0 -75 21t-54 56.5t-20 77.5q0 55 27.5 94.5t74 60t100.5 20.5q82 0 154.5 -42.5t108.5 -142.5q18 -53 81 -248q77 -244 111 -334q5 53 37 108t89 133q31 41 49.5 68.5t27.5 49.5
q2 5 2 14q0 12 -8 18t-24 12t-24.5 10.5t-14.5 13.5q-9 12 -11 26t-2 36q0 26 -3 43.5t-17.5 36.5t-44.5 35l1 1l17 1q46 0 80.5 -19.5t52.5 -49.5t18 -61q0 -24 -10 -41q-5 44 -34 89.5t-83 65.5l-1 -1q29 -13 55.5 -47t43 -75.5t16.5 -73.5q0 -7 -2 -19q28 59 28 146
q0 61 -13 105q-21 72 -70.5 113.5t-97.5 49.5q-8 1 -25 1q-22 0 -44 -3.5t-34 -9.5l-1 -1q27 9 58 9q28 0 54 -8.5t45 -24.5q-6 0 -18.5 -5.5t-24.5 -5.5q-16 0 -39 8q-49 15 -74 15q-28 0 -46 -13l-2 1q16 23 52.5 42.5t73.5 18.5q62 -2 107.5 -37t69.5 -93q-5 33 -5 52
q0 27 11 46q29 57 108 65v-1q-15 -12 -20.5 -28t-5.5 -37l1 -42q0 -24 -6 -38q-4 -11 -9 -15.5t-13 -8.5q-8 -5 -13.5 -10.5t-8.5 -16.5q-9 24 -9 54q0 33 11 64t29 45h-1q-24 -15 -38 -40.5t-14 -57.5q0 -25 11 -73q13 -61 15 -96v86h80v-700q0 -132 32.5 -231.5
t94.5 -154.5t148 -55q64 0 108 26.5t65 66.5t21 80q0 48 -22 82t-55 52.5t-67 23.5q-16 2 -26 2q-22 0 -43.5 -4t-33.5 -10l-1 -1q27 9 58 9q28 0 54 -8.5t45 -24.5q-6 0 -18.5 -5.5t-24.5 -5.5q-16 0 -39 8q-49 15 -74 15q-28 0 -46 -13l-2 1q15 23 52 42t74 19
q51 0 92 -26.5z" />
    <glyph glyph-name="d.ss01" unicode="&#xe001;" horiz-adv-x="570" 
d="M524 788q12 0 19.5 -8t7.5 -21q0 -3 -2 -11q-8 -31 -28 -57q-1 -25 -1 -114v-533l-80 -44v116q-18 -52 -61.5 -87t-99.5 -35q-64 0 -116.5 32.5t-82.5 90t-30 130.5q0 77 30.5 135t85 90.5t123.5 32.5q40 0 83 -16t68 -47v135q0 19 2 51q-43 -22 -94 -33
q-57 -11 -106 -11q-22 0 -33 1q-121 5 -225 42t-184.5 87t-189.5 130q-91 67 -152 105.5t-130.5 64.5t-144.5 26q-70 0 -128.5 -31t-92.5 -84.5t-34 -116.5q0 -66 29 -116t80 -77t114 -27q26 0 38.5 6t16 15t5.5 26q1 15 3.5 25t10.5 20t20.5 19t25.5 16q24 14 37.5 26
t22.5 35t8 60l1 1q32 -47 32 -96q0 -37 -16 -69t-41.5 -51.5t-51.5 -21.5q32 23 61.5 67.5t29.5 91.5q0 15 -5 35h-1q3 -12 3 -24q0 -45 -30 -91.5t-77.5 -75.5t-95.5 -27q-67 3 -124 36t-90.5 90t-33.5 128q0 75 33.5 136t94.5 96.5t140 35.5q78 0 149 -28.5t131.5 -71
t151.5 -116.5q81 -66 142 -111t136 -85t158 -64q-98 33 -167 90.5t-104 128t-35 143.5q0 50 24 89t65.5 61t92.5 22q34 0 67 -10q90 -28 135 -28t70 24h-1q-19 -15 -65 -15q-27 0 -56 5.5t-50 14.5q11 6 22 17q15 12 25 17t28 5t49 -11q3 -1 20 -6t32 -5q20 0 39 13h2
q-28 -73 -91 -88q-7 -2 -20 -2q-16 0 -34 5.5t-44 16.5q39 -27 62 -69.5t23 -92.5q0 -19 -5 -44q-8 -35 -36 -65t-54 -39l-2 2q18 14 24.5 35t6.5 49l-1 39q0 24 4.5 36t11.5 21t9 14q13 -26 13 -58q0 -51 -31 -98h1q16 13 27 41t13 54q1 5 1 17q0 39 -17.5 78.5t-47.5 68.5
t-66 38q-33 10 -66 10q-69 0 -114.5 -42.5t-45.5 -108.5q0 -96 89.5 -184t220.5 -142t246 -54q14 0 38 2q60 8 101 33q7 52 24 87.5t39 47.5q8 4 16 4zM370 38.5q34 26.5 51.5 63.5t18.5 68v253q-17 29 -51 47t-72 18q-47 0 -89 -28t-68 -85t-26 -138q0 -69 21.5 -120
t57 -78t76.5 -27q47 0 81 26.5z" />
    <glyph glyph-name="y.ss01" unicode="&#xe002;" horiz-adv-x="672" 
d="M689 888.5q40 -21.5 62 -59t22 -84.5q0 -31 -12.5 -61.5t-32.5 -50.5q-51 -48 -123 -48q-42 0 -82 17q-33 13 -57 45.5t-29 60.5l2 2q15 -26 40.5 -35.5t68.5 -14.5q28 -4 40.5 -11t20 -16t12.5 -11q-18 -5 -35 -5q-31 0 -62.5 13.5t-53.5 35.5v-1q11 -18 37 -33t50 -22
q29 -8 55 -8q68 0 110 39q19 17 30 42.5t11 51.5q0 55 -46 84t-119 29q-45 0 -92 -16.5t-90 -41t-110 -66.5q-80 -51 -129 -77q48 -63 83 -147l172 -401l174 401h16l-217 -500q-85 -185 -158 -304.5t-175.5 -196.5t-239.5 -77q-115 -1 -203.5 30.5t-149.5 77.5t-141 121
q-65 60 -107.5 93.5t-97 56.5t-119.5 23q-70 0 -128.5 -31t-92.5 -84.5t-34 -116.5q0 -66 29 -116t80 -77t114 -27q26 0 38.5 6t16 15t5.5 26q1 15 3.5 25t10.5 20t20.5 19t25.5 16q24 14 37.5 26t22.5 35t8 60l1 1q32 -47 32 -96q0 -37 -16 -69t-41.5 -51.5t-51.5 -21.5
q32 23 61.5 67.5t29.5 91.5q0 15 -5 35h-1q3 -12 3 -24q0 -45 -30 -91.5t-77.5 -75.5t-95.5 -27q-67 3 -124 36t-90.5 90t-33.5 128q0 75 33.5 136t94.5 96.5t140 35.5q70 0 126 -25.5t98.5 -63t106.5 -104.5q54 -57 93.5 -94.5t91.5 -72.5t114 -57q-83 33 -134.5 88.5
t-51.5 133.5q0 31 9 66q18 63 69.5 99.5t117.5 36.5q27 0 59 -8l39 -8q62 -16 101 -16q44 0 65 20h-1q-17 -12 -59 -12q-29 0 -59.5 5.5t-52.5 14.5q12 7 21 15q14 11 25 16t29 5t49 -11q3 -1 20 -6t32 -5q20 0 39 13h2q-34 -88 -91 -88q-20 0 -41.5 7t-59.5 24
q40 -24 64 -63t24 -85q0 -18 -5 -41q-8 -35 -36 -65t-54 -39l-2 2q18 14 24.5 35t6.5 49l-1 39q0 24 4.5 36t11.5 21t9 14q13 -26 13 -58q0 -51 -31 -98h1q14 14 27.5 45t14.5 54q1 5 1 16q0 56 -37.5 98t-95.5 56q-27 8 -57 8q-55 0 -96 -29.5t-53 -77.5q-5 -19 -5 -44
q0 -74 55.5 -140.5t139 -106.5t160.5 -40q129 0 230 78.5t173.5 197t146.5 284.5l-198 462q-39 91 -79 154q-87 -35 -161 -35q-73 0 -120.5 29t-47.5 83q0 44 34 72t93 28q70 -1 134.5 -33.5t118.5 -95.5q59 36 143 100q66 49 109 78t90.5 48.5t92.5 19.5q51 0 91 -21.5z
M102 631q-98 149 -203 149q-44 0 -75 -24t-31 -63q0 -47 43 -73.5t109 -26.5q78 0 157 38z" />
    <glyph glyph-name="t_h_e" unicode="&#xe003;" horiz-adv-x="1349" 
d="M803 575q-52 0 -97 29v-1q15 -13 45.5 -25t53.5 -12q58 0 99.5 36t43.5 93q0 69 -50.5 107t-134.5 45q-9 1 -28 1q-75 0 -158.5 -28.5t-224.5 -89.5v-341q21 48 74 83t107 35q80 0 124.5 -46t44.5 -140v-321h-80v295q0 86 -29.5 136t-88.5 50q-29 0 -63.5 -20
t-59.5 -51.5t-29 -63.5v-346h-80v696q-53 -23 -120 -46v-650h-80v625q-93 -26 -186 -26q-25 0 -38 1q-60 4 -102.5 32t-64 70t-21.5 89q0 42 16 78q21 52 61.5 77.5t79.5 30.5q7 1 22 1q50 0 100.5 -26t82.5 -68t30 -86l1 -1l1 13q0 53 -39 98t-80 66q29 4 60.5 -15.5
t52.5 -55.5t21 -78q0 -37 -17 -72h-1q-5 37 -18 58t-29 31t-42 19q-34 11 -51 26q-15 13 -21 40q-6 21 -15 30.5t-36 9.5q-37 0 -82.5 -22t-70.5 -80q-11 -30 -11 -57q0 -41 21.5 -76t61 -56.5t90.5 -23.5q77 -3 156.5 15t149.5 44.5t174 72.5q136 60 223.5 89t171.5 29
q14 0 42 -2q92 -10 144 -61.5t52 -129.5q0 -46 -19 -84t-52.5 -59.5t-75.5 -21.5q-20 0 -43 6q-36 9 -66 36.5t-38 53.5l1 1q20 -23 64 -23q12 0 36 2q22 2 30 2q22 0 32 -6t18 -16.5t14 -11.5q-26 -13 -59 -13zM895 230q6 -66 36 -114.5t75.5 -74.5t98.5 -26t91 23t53 63
q9 24 9 45q0 37 -23 63v-1q12 -24 12 -49t-10.5 -51t-27.5 -47q0 16 -9 29q-5 9 -7.5 17t-2.5 22q0 8 3 21t4 19q9 38 9 52q0 25 -15 39l2 2q38 -16 59.5 -47.5t21.5 -69.5q0 -20 -8 -44q-18 -51 -68.5 -79t-125.5 -28q-76 0 -135.5 32.5t-93 90t-33.5 130.5q0 80 31.5 138
t90 89t136.5 31q72 0 123 -34t78 -87.5t30 -112.5h-406q0 -13 2 -41zM978 469.5q-36 -24.5 -58.5 -71.5t-25.5 -112h319q-4 54 -23.5 101.5t-54 77t-79.5 29.5q-42 0 -78 -24.5z" />
    </font>
</defs>
</svg>
